# xmcd
#
# Track frame offsets:
#	150
#	1286
#	13908
#	33076
#	56417
#	84665
#	114876
#	143294
#	178121
#	200171
#	218211
#	255023
#
# Disc length: 4302 seconds
#
# Revision: 2
# Processed by: cddbd v1.5.2PL0 Copyright (c) Steve Scherf et al.
# Submitted via: EasyCDDAExtractor 11.5.0.1
#
DISCID=9110cc0c
DTITLE=Юрий Наумов - Рождён чтоб играть CD 1
DYEAR=2004
DGENRE=Blues
TTITLE0=Интро
TTITLE1=Шкодный блюз
TTITLE2=Ты и я
TTITLE3=Я забыл где мой дом
TTITLE4=Ночь на хайвее
TTITLE5=Та, с которой шёл
TTITLE6=Тривиальная история
TTITLE7=Возвращение блудного сына
TTITLE8=Пинг-понг блюз
TTITLE9=Любовь
TTITLE10=Рождён чтоб играть
TTITLE11=Все эти печальные сказки
EXTD=YEAR: 2004
EXTT0=
EXTT1=
EXTT2=
EXTT3=
EXTT4=
EXTT5=
EXTT6=
EXTT7=
EXTT8=
EXTT9=
EXTT10=
EXTT11=
PLAYORDER=
